<svg width="50" height="50" viewBox="0 0 50 50" fill="none" xmlns="http://www.w3.org/2000/svg">
<path fill-rule="evenodd" clip-rule="evenodd" d="M35.4193 10.4167H14.5859C13.4353 10.4167 12.5026 11.3494 12.5026 12.5V37.5C12.5026 38.6506 13.4353 39.5833 14.5859 39.5833H35.4193C36.5699 39.5833 37.5026 38.6506 37.5026 37.5V12.5C37.5026 11.3494 36.5699 10.4167 35.4193 10.4167ZM14.5859 6.25C11.1342 6.25 8.33594 9.04822 8.33594 12.5V37.5C8.33594 40.9518 11.1342 43.75 14.5859 43.75H35.4193C38.871 43.75 41.6693 40.9518 41.6693 37.5V12.5C41.6693 9.04822 38.871 6.25 35.4193 6.25H14.5859Z" fill="black"/>
<path d="M16.6693 14.5833H33.3359V18.75H16.6693V14.5833Z" fill="black"/>
<path d="M16.6693 22.9167H33.3359V27.0833H16.6693V22.9167Z" fill="black"/>
<path d="M16.6693 31.25H27.0859V35.4167H16.6693V31.25Z" fill="black"/>
</svg>
