<svg width="50" height="50" viewBox="0 0 50 50" fill="none" xmlns="http://www.w3.org/2000/svg">
<path d="M18.7503 22.918C19.9009 22.918 20.8337 21.9852 20.8337 20.8346C20.8337 19.684 19.9009 18.7513 18.7503 18.7513C17.5997 18.7513 16.667 19.684 16.667 20.8346C16.667 21.9852 17.5997 22.918 18.7503 22.918Z" fill="black"/>
<path d="M29.167 35.418C29.167 33.1168 27.3015 31.2513 25.0003 31.2513C22.6991 31.2513 20.8337 33.1168 20.8337 35.418H16.667C16.667 30.8156 20.398 27.0846 25.0003 27.0846C29.6027 27.0846 33.3337 30.8156 33.3337 35.418H29.167Z" fill="black"/>
<path d="M33.3337 20.8346C33.3337 21.9852 32.4009 22.918 31.2503 22.918C30.0997 22.918 29.167 21.9852 29.167 20.8346C29.167 19.684 30.0997 18.7513 31.2503 18.7513C32.4009 18.7513 33.3337 19.684 33.3337 20.8346Z" fill="black"/>
<path fill-rule="evenodd" clip-rule="evenodd" d="M45.8337 25.0013C45.8337 36.5072 36.5063 45.8346 25.0003 45.8346C13.4944 45.8346 4.16699 36.5072 4.16699 25.0013C4.16699 13.4954 13.4944 4.16797 25.0003 4.16797C36.5063 4.16797 45.8337 13.4954 45.8337 25.0013ZM41.667 25.0013C41.667 34.206 34.2051 41.668 25.0003 41.668C15.7956 41.668 8.33366 34.206 8.33366 25.0013C8.33366 15.7966 15.7956 8.33464 25.0003 8.33464C34.2051 8.33464 41.667 15.7966 41.667 25.0013Z" fill="black"/>
</svg>
