<svg width="50" height="50" viewBox="0 0 50 50" fill="none" xmlns="http://www.w3.org/2000/svg">
<path fill-rule="evenodd" clip-rule="evenodd" d="M25.0283 11.6089L22.7637 9.34435C18.289 4.86959 11.034 4.86959 6.55919 9.34435C2.08444 13.8191 2.08444 21.0741 6.55919 25.5489L24.9734 43.9631L24.9772 43.9594L25.032 44.0142L43.4463 25.6C47.921 21.1252 47.921 13.8702 43.4463 9.39547C38.9715 4.92071 31.7165 4.92071 27.2418 9.39547L25.0283 11.6089ZM24.9772 38.0668L35.261 27.783L38.2835 24.8642L38.2865 24.8672L40.5 22.6537C43.3476 19.8061 43.3476 15.1893 40.5 12.3417C37.6524 9.49417 33.0356 9.49417 30.188 12.3417L25.0305 17.4992L25.0154 17.4842L25.0132 17.4864L19.8174 12.2906C16.9699 9.44305 12.353 9.44305 9.50547 12.2906C6.6579 15.1382 6.6579 19.755 9.50547 22.6026L14.7959 27.8931L14.7997 27.8893L24.9772 38.0668Z" fill="black"/>
</svg>
