<svg width="50" height="50" viewBox="0 0 50 50" fill="none" xmlns="http://www.w3.org/2000/svg">
<path fill-rule="evenodd" clip-rule="evenodd" d="M29.1693 6.2487V6.85261C35.1932 8.64542 39.5859 14.2257 39.5859 20.832V35.4154H41.6693V39.582H8.33594V35.4154H10.4193V20.832C10.4193 14.2257 14.812 8.64542 20.8359 6.85261V6.2487C20.8359 3.94751 22.7014 2.08203 25.0026 2.08203C27.3038 2.08203 29.1693 3.94751 29.1693 6.2487ZM14.5859 35.4154H35.4193V20.832C35.4193 15.0791 30.7556 10.4154 25.0026 10.4154C19.2496 10.4154 14.5859 15.0791 14.5859 20.832V35.4154ZM29.1693 43.7487V41.6654H20.8359V43.7487C20.8359 46.0499 22.7014 47.9154 25.0026 47.9154C27.3038 47.9154 29.1693 46.0499 29.1693 43.7487Z" fill="#FF0000"/>
</svg>
