<svg width="50" height="50" viewBox="0 0 50 50" fill="none" xmlns="http://www.w3.org/2000/svg">
<path d="M37.5 18.75C40.9518 18.75 43.75 15.9518 43.75 12.5C43.75 9.04822 40.9518 6.25 37.5 6.25C34.0482 6.25 31.25 9.04822 31.25 12.5C31.25 12.7614 31.2661 13.0191 31.2972 13.2721L16.8388 20.5014C15.7147 19.417 14.1852 18.75 12.5 18.75C9.04822 18.75 6.25 21.5482 6.25 25C6.25 28.4518 9.04822 31.25 12.5 31.25C14.1852 31.25 15.7147 30.583 16.8388 29.4986L31.2972 36.7278C31.2661 36.9809 31.25 37.2386 31.25 37.5C31.25 40.9518 34.0482 43.75 37.5 43.75C40.9518 43.75 43.75 40.9518 43.75 37.5C43.75 34.0482 40.9518 31.25 37.5 31.25C35.8148 31.25 34.2853 31.917 33.1612 33.0014L18.7028 25.7722C18.7339 25.5191 18.75 25.2614 18.75 25C18.75 24.7386 18.7339 24.4809 18.7028 24.2278L33.1612 16.9986C34.2853 18.083 35.8148 18.75 37.5 18.75Z" fill="black"/>
</svg>
