<svg width="50" height="50" viewBox="0 0 50 50" fill="none" xmlns="http://www.w3.org/2000/svg">
<path d="M20.8307 25.0013C20.8307 26.1519 19.898 27.0846 18.7474 27.0846C17.5968 27.0846 16.6641 26.1519 16.6641 25.0013C16.6641 23.8507 17.5968 22.918 18.7474 22.918C19.898 22.918 20.8307 23.8507 20.8307 25.0013Z" fill="black"/>
<path d="M31.2474 27.0846C32.398 27.0846 33.3307 26.1519 33.3307 25.0013C33.3307 23.8507 32.398 22.918 31.2474 22.918C30.0968 22.918 29.1641 23.8507 29.1641 25.0013C29.1641 26.1519 30.0968 27.0846 31.2474 27.0846Z" fill="black"/>
<path fill-rule="evenodd" clip-rule="evenodd" d="M25.0482 4.16803L24.9974 4.16797C13.4915 4.16797 4.16406 13.4954 4.16406 25.0013C4.16406 36.5072 13.4915 45.8346 24.9974 45.8346C36.5033 45.8346 45.8307 36.5072 45.8307 25.0013C45.8307 14.0479 37.3776 5.06875 26.639 4.2317L26.6403 4.22673C26.1076 4.18653 25.5766 4.16715 25.0482 4.16803ZM24.9974 41.668C34.2021 41.668 41.6641 34.206 41.6641 25.0013C41.6641 23.5459 41.4775 22.134 41.127 20.7883C33.6635 21.3165 26.5305 17.7609 22.4151 11.6731C19.3999 14.7489 15.202 16.661 10.5574 16.6733C9.14118 19.1235 8.33073 21.9678 8.33073 25.0013C8.33073 34.206 15.7927 41.668 24.9974 41.668ZM24.9526 8.33469L25.0466 8.33471L24.9974 8.33464L24.9526 8.33469Z" fill="black"/>
</svg>
